# xmcd CD database file generated by OrangeCD 5.1
#
# Track frame offsets:
#	150
#	34692
#	55853
#	74357
#	98713
#	116844
#	142155
#	171695
#	210253
#	233344
#	260476
#
# Disc length: 3712 seconds
#
# Revision: 0
# Processed by: cddbd v1.5PL3 Copyright (c) Steve Scherf et al.
# Submitted via: OrangeCD 5.1
#
DISCID=9d0e7e0b
DTITLE=The Blue Groove - The Blue Groove
DYEAR=1900
DGENRE=Blues
TTITLE0=Great Big Fool
TTITLE1=Whole Lotta-Woman
TTITLE2=Don't Come Back
TTITLE3=Steppin' Out
TTITLE4=Fool In Love
TTITLE5=It's Up To You
TTITLE6=Bobby Mcgee
TTITLE7=Summertime
TTITLE8=T.Bone Shuffle
TTITLE9=I've Got The Blues over You
TTITLE10=Sugar Coated Love
EXTD=
EXTT0=
EXTT1=
EXTT2=
EXTT3=
EXTT4=
EXTT5=
EXTT6=
EXTT7=
EXTT8=
EXTT9=
EXTT10=
PLAYORDER=
